<svg width="512" height="512" viewBox="0 0 512 512" fill="none" xmlns="http://www.w3.org/2000/svg">
<path d="M25 134H428V451H25V134Z" fill="url(#paint0_linear_3090_62568)"/>
<path d="M35 106.649C35 99.8888 41.5671 94.9834 48.1029 96.7102C67.991 101.965 108.101 111.144 151.5 113C189.22 114.613 235.451 101.594 277 97.4485C325.441 92.6153 393.2 92.6716 418.219 92.8848C423.673 92.9313 428 97.3722 428 102.827V134.824C428 140.415 423.464 144.928 417.873 144.882C392.58 144.671 325.219 144.637 277 149.448C235.451 153.594 189.22 166.613 151.5 165C103.055 162.928 58.7065 151.73 42.0116 147.054C37.8115 145.877 35 142.035 35 137.674V106.649Z" fill="#d32727"/>
<path d="M500.055 476.16L465.162 501.845C463.932 502.736 462.478 503.264 460.963 503.37C459.449 503.476 457.935 503.155 456.593 502.444C455.252 501.733 454.136 500.661 453.373 499.348C452.61 498.036 452.23 496.536 452.277 495.018V486.4H42.668C38.1417 486.4 33.8007 484.602 30.6001 481.401C27.3995 478.2 25.6014 473.859 25.6014 469.333V59.7329H16.9571C15.4396 59.7792 13.9395 59.3993 12.627 58.6363C11.3144 57.8733 10.2419 56.7577 9.53117 55.4162C8.82041 54.0746 8.49981 52.5607 8.60574 51.0462C8.71166 49.5317 9.23986 48.0772 10.1304 46.8476L35.8414 11.9889C36.6287 10.9182 37.6568 10.0477 38.8427 9.44774C40.0286 8.84777 41.339 8.53516 42.668 8.53516C43.9971 8.53516 45.3075 8.84777 46.4934 9.44774C47.6792 10.0477 48.7074 10.9182 49.4947 11.9889L75.18 46.8817C76.0622 48.1131 76.5826 49.5665 76.6823 51.0779C76.7821 52.5894 76.4573 54.0986 75.7446 55.4352C75.032 56.7718 73.9598 57.8825 72.6492 58.642C71.3386 59.4014 69.8418 59.7793 68.3278 59.7329H59.7347V443.733C59.7347 445.996 60.6338 448.167 62.2341 449.767C63.8344 451.367 66.0049 452.266 68.268 452.266H452.268V443.648C452.222 442.13 452.602 440.63 453.365 439.317C454.128 438.005 455.243 436.932 456.585 436.222C457.926 435.511 459.44 435.19 460.955 435.296C462.469 435.402 463.924 435.93 465.153 436.821L500.055 462.506C501.125 463.294 501.996 464.322 502.596 465.508C503.196 466.693 503.509 468.004 503.509 469.333C503.509 470.662 503.196 471.972 502.596 473.158C501.996 474.344 501.125 475.372 500.055 476.16Z" />
<defs>
<linearGradient id="paint0_linear_3090_62568" x1="226.5" y1="114" x2="226.5" y2="451" gradientUnits="userSpaceOnUse">
<stop stop-color="#d32727"/>
<stop offset="1" stop-color="#d32727" stop-opacity="0"/>
</linearGradient>
</defs>
</svg>
