<svg width="496" height="496" viewBox="0 0 496 496" fill="none" xmlns="http://www.w3.org/2000/svg">
<path d="M137.07 290.667H85.8703C83.6071 290.667 81.4367 291.566 79.8363 293.166C78.236 294.766 77.337 296.937 77.337 299.2V213.867C77.337 211.603 76.4379 209.433 74.8376 207.833C73.2373 206.232 71.0668 205.333 68.8036 205.333H17.6036C15.3405 205.333 13.17 206.232 11.5697 207.833C9.96936 209.433 9.07031 211.603 9.07031 213.867V469.867H145.604V299.2C145.604 296.937 144.705 294.766 143.104 293.166C141.504 291.566 139.333 290.667 137.07 290.667ZM307.737 85.8665H256.537C254.274 85.8665 252.103 86.7656 250.503 88.3659C248.903 89.9662 248.004 92.1367 248.004 94.3999V9.06654C248.004 6.80336 247.105 4.63287 245.504 3.03256C243.904 1.43225 241.734 0.533203 239.47 0.533203H188.27C186.007 0.533203 183.837 1.43225 182.236 3.03256C180.636 4.63287 179.737 6.80336 179.737 9.06654V469.867H316.27V94.3999C316.27 92.1367 315.371 89.9662 313.771 88.3659C312.171 86.7656 310 85.8665 307.737 85.8665ZM478.404 205.333H427.204C424.94 205.333 422.77 206.232 421.17 207.833C419.569 209.433 418.67 211.603 418.67 213.867V128.533C418.67 126.27 417.771 124.1 416.171 122.499C414.571 120.899 412.4 120 410.137 120H358.937C356.674 120 354.503 120.899 352.903 122.499C351.303 124.1 350.404 126.27 350.404 128.533V469.867H486.937V213.867C486.937 211.603 486.038 209.433 484.438 207.833C482.837 206.232 480.667 205.333 478.404 205.333Z" fill="#d327277f"/>
<path d="M77.337 213.867V469.867H9.07031V213.867C9.07031 211.603 9.96936 209.433 11.5697 207.833C13.17 206.232 15.3405 205.333 17.6036 205.333H68.8036C71.0668 205.333 73.2373 206.232 74.8376 207.833C76.4379 209.433 77.337 211.603 77.337 213.867ZM248.004 9.06654V469.867H179.737V9.06654C179.737 6.80336 180.636 4.63287 182.236 3.03256C183.837 1.43225 186.007 0.533203 188.27 0.533203H239.47C241.734 0.533203 243.904 1.43225 245.504 3.03256C247.105 4.63287 248.004 6.80336 248.004 9.06654ZM418.67 128.533V469.867H350.404V128.533C350.404 126.27 351.303 124.1 352.903 122.499C354.503 120.899 356.674 120 358.937 120H410.137C412.4 120 414.571 120.899 416.171 122.499C417.771 124.1 418.67 126.27 418.67 128.533Z" fill="#d32727"/>
<path d="M486.935 452.8H9.06849C4.35566 452.8 0.535156 456.62 0.535156 461.333V486.933C0.535156 491.646 4.35566 495.466 9.06849 495.466H486.935C491.648 495.466 495.469 491.646 495.469 486.933V461.333C495.469 456.62 491.648 452.8 486.935 452.8Z" fill="#"/>
</svg>
