<svg width="462" height="290" viewBox="0 0 462 290" fill="none" xmlns="http://www.w3.org/2000/svg">
<path d="M428.118 58.7135H423.479V53.9012C423.464 39.8668 417.882 26.4116 407.958 16.4878C398.035 6.564 384.579 0.982082 370.545 0.966797H52.9383C38.904 0.982082 25.4487 6.564 15.5249 16.4878C5.60111 26.4116 0.0191915 39.8668 0.00390625 53.9012L0.00390625 236.766C0.0191915 250.8 5.60111 264.255 15.5249 274.179C25.4487 284.103 38.904 289.685 52.9383 289.7H370.545C384.579 289.685 398.035 284.103 407.958 274.179C417.882 264.255 423.464 250.8 423.479 236.766V231.953H428.118C446.694 231.953 461.804 216.843 461.804 198.268V92.399C461.804 73.8238 446.694 58.7135 428.118 58.7135Z" fill="#0B2464"/>
<path d="M201.552 229.189L263.021 132.502C263.864 131.174 264.336 129.644 264.386 128.072C264.437 126.5 264.064 124.943 263.308 123.564C262.552 122.185 261.44 121.034 260.087 120.23C258.735 119.427 257.192 119.002 255.619 118.999L230.862 118.963L239.284 67.6219C239.596 65.6649 239.239 63.6601 238.27 61.9312C237.302 60.2024 235.778 58.8507 233.947 58.0944C232.115 57.3382 230.082 57.2216 228.176 57.7636C226.27 58.3055 224.602 59.4744 223.442 61.0812L160.567 148.977C159.613 150.287 159.042 151.836 158.917 153.452C158.792 155.067 159.117 156.686 159.857 158.127C160.597 159.569 161.722 160.777 163.108 161.617C164.493 162.457 166.085 162.896 167.705 162.885L192.989 162.92L185.429 223.37C185.147 225.361 185.56 227.388 186.598 229.111C187.635 230.834 189.234 232.147 191.126 232.83C193.018 233.512 195.087 233.523 196.985 232.86C198.884 232.197 200.496 230.901 201.552 229.189Z" fill="#FFB557"/>
</svg>
