<svg width="410" height="335" viewBox="0 0 410 335" fill="none" xmlns="http://www.w3.org/2000/svg">
<path fill-rule="evenodd" clip-rule="evenodd" d="M34.3343 68.2646H375.664C394.434 68.2646 409.799 83.6298 409.799 102.4V300.3C409.799 319.07 394.434 334.435 375.669 334.435H34.3343C15.5592 334.435 0.199219 319.07 0.199219 300.3V102.4C0.199219 83.6298 15.5592 68.2646 34.3343 68.2646ZM41 253.065H211V218.935H41V253.065ZM41 184.8H109.27V150.665H41V184.8ZM334 178.8C353.33 178.8 369 163.13 369 143.8C369 124.47 353.33 108.8 334 108.8C314.67 108.8 299 124.47 299 143.8C299 163.13 314.67 178.8 334 178.8Z" fill="#d32727" />
<path d="M341.533 0C360.298 0 375.663 15.3702 375.663 34.135H34.3281C34.3281 15.3651 49.6881 0 68.4632 0H341.533Z" />
</svg>
