<svg width="480" height="481" viewBox="0 0 480 481" fill="none" xmlns="http://www.w3.org/2000/svg">
<path d="M8.13121e-05 239.28C-0.0371704 284.286 12.726 328.374 36.8001 366.4L103.28 316.56C89.7974 293.037 82.709 266.393 82.7201 239.28C82.761 198.788 98.2145 159.83 125.941 130.32C153.668 100.81 191.589 82.9612 232 80.4V0C169.823 1.93294 110.838 27.9885 67.5356 72.65C24.2329 117.311 0.0116121 177.073 8.13121e-05 239.28Z" />
<path d="M248 80V0C310.377 2.42078 369.389 28.9145 412.648 73.9185C455.907 118.923 480.047 178.937 480 241.36C480.11 293.757 462.897 344.72 431.04 386.32L368 332.24C387.098 305.641 397.342 273.706 397.28 240.96C397.28 157.12 331.04 84.48 248 80Z" fill="#d32727"/>
<path d="M45.1992 380.08L111.439 330.4C125.056 349.857 142.902 365.977 163.638 377.552C184.375 389.127 207.463 395.855 231.171 397.233C254.879 398.611 278.592 394.602 300.529 385.508C322.467 376.413 342.06 362.468 357.839 344.72L420.639 398.48C396.807 425.646 367.147 447.08 333.874 461.181C300.6 475.282 264.572 481.687 228.477 479.918C192.382 478.149 157.153 468.252 125.418 450.965C93.6825 433.677 66.2609 409.447 45.1992 380.08Z" fill="#d327277f"/>
</svg>
