<svg width="464" height="273" viewBox="0 0 464 273" fill="none" xmlns="http://www.w3.org/2000/svg">
<path d="M219.599 219.359L254.079 122.319C260.184 123.525 266.179 125.238 271.999 127.439L237.119 224.959C240.445 227.304 243.165 230.405 245.057 234.008C246.948 237.61 247.957 241.611 247.999 245.679C248 250.816 246.502 255.841 243.69 260.139C240.878 264.437 236.872 267.821 232.165 269.877C227.458 271.933 222.254 272.571 217.19 271.713C212.125 270.855 207.421 268.538 203.654 265.047C199.887 261.555 197.22 257.041 195.98 252.056C194.74 247.072 194.981 241.834 196.674 236.984C198.366 232.135 201.437 227.884 205.509 224.754C209.581 221.623 214.478 219.748 219.599 219.359Z" fill="#"/>
<path d="M303.998 37.52L271.998 127.44C281.499 131.078 290.483 135.946 298.718 141.92L380.718 56C341.607 21.7716 291.933 2.00366 239.998 0V120C244.727 120.348 249.429 120.99 254.078 121.92L286.078 31.6L303.998 37.52ZM223.998 120.4V0C174.253 1.78 126.47 19.8533 87.9981 51.44L162.318 144C180.075 130.178 201.549 121.961 223.998 120.4ZM-0.00190556 240H115.998C115.898 208.205 128.278 177.641 150.478 154.88L76.3181 62.24C52.0977 85.0607 32.8252 112.615 19.6965 143.194C6.56785 173.772 -0.13697 206.722 -0.00190556 240Z" fill="#d32727"/>
<path d="M463.999 240C464.062 207.789 457.731 175.886 445.371 146.141C433.012 116.396 414.87 89.4006 391.999 66.7197L310.879 152C322.693 163.398 332.073 177.072 338.453 192.197C344.833 207.323 348.081 223.584 347.999 240H463.999Z" />
</svg>
