<svg width="348" height="268" viewBox="0 0 348 268" fill="none" xmlns="http://www.w3.org/2000/svg">
<path opacity="0.5" d="M0.42893 200.857C-1.72339 230.668 4.51773 242.311 12.5889 252.537C33.0785 278.502 94.2798 269.084 106.829 240.377C114.332 223.213 102.184 207.849 106.829 182.617C112.869 149.807 151.213 131.399 158.509 127.897C223.741 96.5853 271.834 148.11 316.589 115.737C335.859 101.799 350.74 75.0317 346.989 48.8573C340.736 10.1764 308.271 -7.9025 243.629 3.25734C164.844 16.8583 161.16 14.1649 85.5489 3.25734C0.124931 -9.06682 -4.92147 35.9768 4.15901 90.8458C5.85229 101.069 12.1268 126.681 12.5889 137.017C13.5009 157.65 2.57213 171.19 0.42893 200.857Z" fill="#FFB557"/>
<path d="M307.932 25.6513C269.628 -0.401463 190.892 40.5473 150.229 39.9819C138.914 39.8238 127.988 36.1667 115.032 33.4854C95.6519 29.2112 75.6122 24.791 58.8162 24.791C13.1706 25.4355 11.1703 57.319 28.1578 102.007C39.5487 128.622 18.2139 176.147 60.1994 182.096C66.4899 182.739 72.8197 181.33 78.2439 178.08C83.668 174.83 87.8955 169.913 90.2954 164.063C113.843 109.203 193.552 87.5853 249.996 101.451C258.665 103.803 267.731 104.314 276.61 102.953C285.489 101.592 293.985 98.3877 301.551 93.5467C324.062 79.663 339.068 46.831 307.932 25.6513Z" fill="#FFB557"/>
<path d="M73.1601 141.848C67.2898 149.81 56.0783 144.448 56.6073 134.835C60.7386 59.5557 7.18601 22.0269 109.807 57.2362C170.109 77.9265 297.776 5.93319 301.549 54.4607C304.425 91.418 243.294 72.0684 213.997 72.4393C160.837 73.1111 105.138 98.4647 73.1601 141.848Z" fill="#0B2464"/>
<path d="M240.602 246.464C252.792 270.636 319.167 263.872 337.882 234.304C355.27 206.832 334.653 153.942 304.442 149.184C287.904 146.579 267.068 157.931 264.922 170.464C263.268 180.116 273.604 185.184 271.002 194.784C268.287 204.795 255.859 203.673 246.682 216.064C240.963 223.786 236.236 237.123 240.602 246.464Z" fill="#FFB557"/>
<path d="M268.248 239.309C267.108 239.136 266.032 238.674 265.121 237.967C264.21 237.26 263.496 236.332 263.046 235.27C262.596 234.209 262.426 233.049 262.552 231.903C262.678 230.757 263.095 229.662 263.764 228.724C265.73 226.447 268.19 224.65 270.957 223.47C285.968 216.612 298.201 202.525 291.173 181.889C290.729 180.568 290.599 179.161 290.794 177.781C290.989 176.401 291.504 175.085 292.297 173.939C293.091 172.793 294.14 171.847 295.363 171.178C296.586 170.509 297.948 170.135 299.341 170.085C305.832 170.158 312.21 175.897 318.044 188.288C323.972 200.883 324.555 215.533 319.868 222.92C313.952 232.265 294.377 240.218 276.24 239.871C273.568 239.824 270.901 239.637 268.248 239.309Z" fill="#0B2464"/>
</svg>
