<svg width="512" height="512" viewBox="0 0 512 512" fill="none" xmlns="http://www.w3.org/2000/svg">
<path d="M116.379 387.138C113.321 387.136 110.327 386.257 107.752 384.606C105.177 382.954 103.13 380.599 101.853 377.82C100.575 375.041 100.121 371.953 100.545 368.924C100.968 365.895 102.251 363.05 104.241 360.727L202.246 246.359C207.513 240.226 213.99 235.247 221.272 231.735C228.553 228.224 236.482 226.255 244.561 225.952C252.64 225.65 260.694 227.02 268.218 229.978C275.742 232.935 282.573 237.416 288.283 243.138L308.444 263.298C311.052 265.884 314.161 267.91 317.579 269.253C320.998 270.596 324.655 271.226 328.326 271.106C331.998 270.979 335.603 270.086 338.909 268.484C342.215 266.882 345.15 264.607 347.526 261.805L445.659 147.458C448.464 144.395 452.351 142.543 456.496 142.293C460.642 142.043 464.723 143.415 467.876 146.119C471.028 148.822 473.006 152.646 473.391 156.782C473.775 160.917 472.537 165.04 469.937 168.279L371.932 282.647C366.657 288.771 360.18 293.746 352.903 297.261C345.626 300.777 337.703 302.759 329.628 303.085C321.564 303.334 313.533 301.95 306.018 299.017C298.503 296.085 291.658 291.663 285.894 286.018L265.713 265.709C263.137 263.078 260.034 261.022 256.607 259.677C253.18 258.331 249.508 257.726 245.83 257.901C242.158 258.028 238.554 258.921 235.247 260.523C231.941 262.125 229.006 264.4 226.63 267.202L128.603 381.549C127.096 383.315 125.221 384.73 123.11 385.695C120.998 386.661 118.701 387.153 116.379 387.138Z" fill="#d32727"/>
<path d="M500.426 476.258L465.533 501.944C464.303 502.834 462.849 503.362 461.334 503.468C459.82 503.574 458.306 503.254 456.964 502.543C455.623 501.832 454.507 500.76 453.744 499.447C452.981 498.135 452.601 496.634 452.648 495.117V486.498H43.0391C38.5128 486.498 34.1718 484.7 30.9712 481.5C27.7706 478.299 25.9725 473.958 25.9725 469.432V59.8316H17.3282C15.8107 59.8778 14.3106 59.4979 12.9981 58.7349C11.6855 57.9719 10.613 56.8563 9.90227 55.5148C9.19151 54.1732 8.87091 52.6593 8.97683 51.1448C9.08275 49.6303 9.61096 48.1758 10.5015 46.9462L36.2125 12.0876C36.9998 11.0169 38.0279 10.1464 39.2138 9.54638C40.3997 8.9464 41.7101 8.63379 43.0391 8.63379C44.3682 8.63379 45.6786 8.9464 46.8644 9.54638C48.0503 10.1464 49.0785 11.0169 49.8658 12.0876L75.5511 46.9804C76.4333 48.2117 76.9537 49.6651 77.0534 51.1766C77.1532 52.688 76.8284 54.1972 76.1157 55.5338C75.4031 56.8704 74.3309 57.9812 73.0203 58.7406C71.7097 59.5 70.2129 59.8779 68.6989 59.8316H60.1058V443.832C60.1058 446.095 61.0049 448.265 62.6052 449.866C64.2055 451.466 66.376 452.365 68.6391 452.365H452.639V443.746C452.593 442.229 452.973 440.729 453.736 439.416C454.499 438.104 455.614 437.031 456.956 436.32C458.298 435.61 459.811 435.289 461.326 435.395C462.84 435.501 464.295 436.029 465.524 436.92L500.426 462.605C501.497 463.392 502.367 464.42 502.967 465.606C503.567 466.792 503.88 468.103 503.88 469.432C503.88 470.761 503.567 472.071 502.967 473.257C502.367 474.443 501.497 475.471 500.426 476.258Z" />
</svg>
