<svg width="512" height="512" viewBox="0 0 512 512" fill="none" xmlns="http://www.w3.org/2000/svg">
<g clip-path="url(#clip0_3090_62617)">
<path d="M406 271C370.672 271 340.769 280.139 321.947 294.536L177.821 258.748C173.351 244.753 161.677 232.577 145.356 224.017L126.958 251.635C117.568 264.262 104.106 271 90 271C75.894 271 62.432 264.262 53.979 252.968L34.654 224.012C13.705 234.998 0 251.851 0 271C0 304.137 40.294 331 90 331C130.206 331 163.85 313.305 175.397 289.051L302.72 320.637C301.77 324.008 301.001 327.427 301.001 331.001C301.001 343.483 307.137 354.796 317.682 364.194L254.089 400.533C237.642 394.506 217.843 391 196 391C136.146 391 90 416.796 90 451C90 485.204 136.146 512 196 512C255.854 512 301 485.204 301 451C301 438.518 294.864 427.205 284.319 417.807L347.912 381.468C364.358 387.494 384.157 391 406 391C465.854 391 512 365.204 512 331C512 296.796 465.854 271 406 271Z" fill="#0B2464"/>
<path d="M78.003 234.994C80.83 238.773 85.283 241 90 241C94.717 241 99.17 238.773 101.997 234.994L162.041 143.95C173.789 128.291 180 109.644 180 90C180 40.371 139.629 0 90 0C40.371 0 0 40.371 0 90C0 109.629 6.211 128.291 17.959 143.95L78.003 234.994ZM90 45C114.814 45 135 65.186 135 90C135 114.814 114.814 135 90 135C65.186 135 45 114.814 45 90C45 65.186 65.186 45 90 45Z" fill="#FFB557"/>
</g>
<defs>
<clipPath id="clip0_3090_62617">
<rect width="512" height="512" fill="white"/>
</clipPath>
</defs>
</svg>
