<svg width="512" height="512" viewBox="0 0 512 512" fill="none" xmlns="http://www.w3.org/2000/svg">
<path d="M16.4809 200.849C12.255 218.973 10.1263 237.523 10.1368 256.133C10.1143 304.015 24.0849 350.859 50.3306 390.906C76.5763 430.953 113.953 462.458 157.865 481.546C188.818 495.215 222.298 502.228 256.135 502.132C302.582 502.154 348.085 489.021 387.376 464.252C426.668 439.484 458.14 404.093 478.149 362.177C498.159 320.262 505.887 273.536 500.439 227.41C494.991 181.283 476.59 137.644 447.366 101.543L16.4809 200.849Z" fill="#d32727"/>
<path d="M256.131 10.135C200.502 10.1303 146.515 28.9872 102.988 63.6261C59.4596 98.2651 28.9625 146.639 16.4766 200.848L256.131 256.133L447.362 101.543C424.361 72.9645 395.238 49.9148 362.14 34.0943C329.042 18.2737 292.815 10.0859 256.131 10.135Z" />
<path d="M256.131 10.1348V256.133L16.4766 200.848C28.9625 146.639 59.4596 98.2648 102.988 63.6259C146.515 28.987 200.502 10.1301 256.131 10.1348Z" />
<path d="M502.135 256.133C502.135 321.376 476.218 383.947 430.084 430.081C383.95 476.214 321.38 502.132 256.137 502.132C222.3 502.228 188.82 495.215 157.867 481.546L256.137 256.133L447.368 101.543C482.839 145.252 502.179 199.842 502.135 256.133Z" fill="#d327273f"/>
</svg>
