<svg width="410" height="336" viewBox="0 0 410 336" fill="none" xmlns="http://www.w3.org/2000/svg">
<path d="M375.154 0.0644531H34.8446C15.7299 0.0644531 0.199219 15.5951 0.199219 34.7098V107.755C0.199219 126.87 15.7299 142.4 34.8446 142.4H375.154C394.269 142.4 409.799 126.87 409.799 107.755V34.7098C409.799 15.5951 394.269 0.0644531 375.154 0.0644531Z" fill="#0B2464"/>
<path d="M34.8446 193.601H375.154C394.269 193.601 409.799 209.131 409.799 228.246V301.291C409.799 320.406 394.269 335.937 375.154 335.937H34.8446C15.7299 335.937 0.199219 320.406 0.199219 301.291V228.246C0.199219 209.131 15.7299 193.601 34.8446 193.601Z" fill="#006BA9"/>
<path d="M51.3987 301.804H126.833V227.734H51.3987C42.012 227.734 34.332 235.414 34.332 244.801V284.737C34.332 294.124 42.012 301.804 51.3987 301.804Z" fill="#FFB557"/>
<path d="M51.3987 108.267H231.793V34.1973H51.3987C42.012 34.1973 34.332 41.8773 34.332 51.2639V91.1999C34.332 100.587 42.012 108.267 51.3987 108.267Z" fill="#FFB557"/>
</svg>
