<svg width="467" height="467" viewBox="0 0 467 467" fill="none" xmlns="http://www.w3.org/2000/svg">
<path d="M8.97516 93.6773C4.01328 93.6773 0 89.664 0 84.7021V8.97516C0 4.02058 4.01328 0.00729688 8.97516 0.00729688H84.7021C87.0835 0.00729688 89.3672 0.953275 91.0511 2.63713C92.735 4.32098 93.6809 6.60477 93.6809 8.9861C93.6809 11.3674 92.735 13.6512 91.0511 15.3351C89.3672 17.0189 87.0835 17.9649 84.7021 17.9649H17.9576V84.6948C17.9576 89.6567 13.937 93.6773 8.97516 93.6773ZM467 84.7021V8.97516C467 4.01328 462.987 0 458.025 0H382.291C379.909 0 377.625 0.945979 375.942 2.62983C374.258 4.31368 373.312 6.59748 373.312 8.9788C373.312 11.3601 374.258 13.6439 375.942 15.3278C377.625 17.0116 379.909 17.9576 382.291 17.9576H449.035V84.6875C449.035 87.0689 449.981 89.3527 451.665 91.0365C453.349 92.7204 455.633 93.6663 458.014 93.6663C460.395 93.6663 462.679 92.7204 464.363 91.0365C466.047 89.3527 466.993 87.0689 466.993 84.6875L467 84.7021ZM467 458.01V382.298C467 379.917 466.054 377.633 464.37 375.949C462.686 374.265 460.403 373.319 458.021 373.319C455.64 373.319 453.356 374.265 451.672 375.949C449.988 377.633 449.042 379.917 449.042 382.298V449.042H382.298C379.917 449.042 377.633 449.988 375.949 451.672C374.265 453.356 373.319 455.64 373.319 458.021C373.319 460.403 374.265 462.686 375.949 464.37C377.633 466.054 379.917 467 382.298 467H458.018C462.979 467 467 462.987 467 458.025V458.01ZM93.6846 458.01C93.6846 453.048 89.6713 449.035 84.7021 449.035H17.9576V382.283C17.9576 379.902 17.0116 377.618 15.3278 375.934C13.6439 374.25 11.3601 373.304 8.9788 373.304C6.59748 373.304 4.31368 374.25 2.62983 375.934C0.945979 377.618 0 379.902 0 382.283L0 458.025C0 462.987 4.01328 467 8.97516 467H84.7021C89.664 467 93.6773 462.987 93.6773 458.025L93.6846 458.01Z" fill="#FFB557"/>
<path d="M383.928 336.007H400.434C406.22 336.007 410.919 340.698 410.919 346.492V400.474C410.919 406.268 406.22 410.96 400.434 410.96H383.928C378.142 410.96 373.442 406.268 373.442 400.474V346.492C373.442 340.698 378.142 336.007 383.928 336.007Z" fill="#0B2464"/>
<path d="M383.928 261.046H400.434C406.22 261.046 410.919 265.745 410.919 271.539V288.037C410.919 293.831 406.22 298.53 400.434 298.53H383.928C378.142 298.53 373.442 293.831 373.442 288.037V271.539C373.442 265.745 378.142 261.046 383.928 261.046Z" fill="#0B2464"/>
<path d="M346.459 298.53H362.95C368.743 298.53 373.442 303.222 373.442 309.023V325.514C373.442 331.307 368.743 336.007 362.95 336.007H346.451C340.658 336.007 335.966 331.307 335.966 325.514V309.015C335.966 303.222 340.658 298.53 346.459 298.53Z" fill="#0B2464"/>
<path d="M271.498 261.046H325.473C331.266 261.046 335.966 265.745 335.966 271.539V288.037C335.966 293.831 331.266 298.53 325.473 298.53H308.975C303.181 298.53 298.482 303.222 298.482 309.023V325.514C298.482 331.307 293.79 336.007 287.989 336.007H271.498C265.704 336.007 261.005 331.307 261.005 325.514V271.539C261.005 265.745 265.704 261.046 271.498 261.046Z" fill="#0B2464"/>
<path d="M271.498 373.491H325.473V373.483C331.266 373.483 335.966 378.182 335.966 383.976V400.474C335.966 406.268 331.266 410.96 325.473 410.96H271.498C265.704 410.96 261.005 406.268 261.005 400.467V383.976C261.005 378.182 265.704 373.491 271.498 373.491Z" fill="#0B2464"/>
<path fill-rule="evenodd" clip-rule="evenodd" d="M205.994 271.517V400.453C205.994 406.217 201.251 410.96 195.486 410.96H66.5505C60.713 410.96 56.043 406.217 56.043 400.453V271.517C56.043 265.752 60.713 261.009 66.5505 261.009H195.486C201.251 261.009 205.994 265.752 205.994 271.517ZM155.499 298.515C162.65 298.515 168.488 304.353 168.488 311.504V360.466C168.488 367.617 162.65 373.454 155.499 373.454H106.537C99.3864 373.454 93.5489 367.617 93.5489 360.466V311.504C93.5489 304.353 99.3864 298.515 106.537 298.515H155.499ZM111.499 355.504H150.537V316.465H111.499V355.504Z" fill="#0B2464"/>
<path fill-rule="evenodd" clip-rule="evenodd" d="M205.994 66.5475V195.483C205.994 201.248 201.251 205.991 195.486 205.991H66.5505C60.713 205.991 56.043 201.248 56.043 195.483V66.5475C56.043 60.71 60.713 56.04 66.5505 56.04H195.486C201.251 56.04 205.994 60.71 205.994 66.5475ZM155.499 93.546C162.65 93.546 168.488 99.3105 168.488 106.534V155.496C168.488 162.647 162.65 168.485 155.499 168.485H106.537C99.3864 168.485 93.5489 162.647 93.5489 155.496V106.534C93.5489 99.3105 99.3864 93.546 106.537 93.546H155.499ZM111.499 150.535H150.537V111.496H111.499V150.535Z" fill="#0B2464"/>
<path fill-rule="evenodd" clip-rule="evenodd" d="M410.963 66.5475V195.483C410.963 201.248 406.293 205.991 400.455 205.991H271.52C265.755 205.991 261.012 201.248 261.012 195.483V66.5475C261.012 60.71 265.755 56.04 271.52 56.04H400.455C406.293 56.04 410.963 60.71 410.963 66.5475ZM360.469 93.546C367.62 93.546 373.457 99.3105 373.457 106.534V155.496C373.457 162.647 367.62 168.485 360.469 168.485H311.507C304.356 168.485 298.518 162.647 298.518 155.496V106.534C298.518 99.3105 304.356 93.546 311.507 93.546H360.469ZM316.468 150.535H355.507V111.496H316.468V150.535Z" fill="#0B2464"/>
</svg>
