<svg width="475" height="445" viewBox="0 0 475 445" fill="none" xmlns="http://www.w3.org/2000/svg">
<path d="M464.113 156.018L251.017 4.4342C246.954 1.54964 242.095 0 237.113 0C232.13 0 227.271 1.54964 223.209 4.4342L10.1207 156.018C5.91921 158.981 2.7858 163.221 1.18599 168.107C-0.413815 172.992 -0.394646 178.264 1.24065 183.138L82.5207 427.914C84.1047 432.702 87.1587 436.869 91.2479 439.82C95.3372 442.772 100.253 444.359 105.297 444.354H368.929C373.972 444.359 378.888 442.772 382.977 439.82C387.067 436.869 390.121 432.702 391.705 427.914L472.985 183.138C474.621 178.265 474.641 172.994 473.043 168.108C471.444 163.222 468.313 158.982 464.113 156.018ZM377.897 418.738L362.921 398.754C359.355 402.795 355.009 406.074 350.145 408.394L365.113 428.354H110.777L142.513 385.506C137.483 383.54 132.903 380.576 129.049 376.794L96.8407 420.274L16.8487 179.37L83.5207 201.594C84.1633 196.241 85.8949 191.077 88.6087 186.418L24.8567 165.17L229.113 19.8662V77.1622C234.392 76.0895 239.833 76.0895 245.113 77.1622V19.8742L449.369 165.178L422.361 174.178C425.352 178.673 427.396 183.731 428.369 189.042L457.369 179.378L377.897 418.738Z" fill="#0B2464"/>
<path d="M352.554 337.618L384.922 235.93C377.746 235.241 370.895 232.605 365.108 228.308C359.32 224.011 354.816 218.215 352.08 211.546C349.344 204.876 348.481 197.587 349.584 190.463C350.687 183.34 353.714 176.652 358.338 171.122L275.354 127.442C273.126 135.278 268.546 142.241 262.234 147.39C255.921 152.539 248.18 155.627 240.056 156.235C231.933 156.843 223.818 154.943 216.81 150.791C209.801 146.639 204.235 140.435 200.866 133.018L145.65 173.498C152.879 178.433 158.283 185.61 161.028 193.921C163.772 202.233 163.704 211.216 160.835 219.485C157.965 227.754 152.453 234.849 145.149 239.673C137.846 244.498 129.158 246.784 120.426 246.178L138.962 312.914C144.56 309.962 150.785 308.398 157.114 308.354C163.487 308.381 169.761 309.929 175.415 312.872C181.068 315.814 185.936 320.065 189.613 325.271C193.29 330.476 195.67 336.485 196.555 342.796C197.439 349.107 196.803 355.539 194.698 361.554L293.378 375.01C292.817 367.83 294.227 360.634 297.454 354.195C300.682 347.757 305.605 342.322 311.693 338.475C317.782 334.628 324.804 332.515 332.004 332.364C339.205 332.213 346.31 334.03 352.554 337.618Z" fill="#0B2464"/>
<path d="M217.156 103.021C214.519 106.968 213.111 111.608 213.111 116.355C213.118 122.718 215.648 128.819 220.148 133.318C224.647 137.818 230.748 140.348 237.111 140.355C241.858 140.355 246.498 138.947 250.445 136.31C254.392 133.673 257.468 129.924 259.284 125.539C261.101 121.153 261.576 116.328 260.65 111.672C259.724 107.017 257.438 102.74 254.082 99.3839C250.725 96.0275 246.449 93.7417 241.793 92.8157C237.138 91.8896 232.312 92.3649 227.927 94.1814C223.541 95.9979 219.793 99.074 217.156 103.021Z" fill="#FFB557"/>
<path d="M409.066 209.688C411.704 205.741 413.111 201.101 413.111 196.355C413.105 189.991 410.574 183.89 406.075 179.391C401.575 174.891 395.474 172.361 389.111 172.355C384.364 172.355 379.724 173.762 375.778 176.399C371.831 179.036 368.755 182.785 366.938 187.17C365.122 191.556 364.646 196.381 365.572 201.037C366.498 205.692 368.784 209.969 372.141 213.325C375.497 216.682 379.774 218.967 384.429 219.893C389.085 220.819 393.91 220.344 398.296 218.528C402.681 216.711 406.429 213.635 409.066 209.688Z" fill="#FFB557"/>
<path d="M353.066 385.688C355.704 381.741 357.111 377.101 357.111 372.355C357.105 365.991 354.574 359.891 350.075 355.391C345.575 350.891 339.474 348.361 333.111 348.355C328.364 348.355 323.724 349.762 319.778 352.399C315.831 355.036 312.755 358.785 310.938 363.17C309.122 367.556 308.646 372.381 309.572 377.037C310.498 381.692 312.784 385.969 316.141 389.325C319.497 392.682 323.774 394.967 328.429 395.893C333.085 396.819 337.91 396.344 342.296 394.528C346.681 392.711 350.429 389.635 353.066 385.688Z" fill="#FFB557"/>
<path d="M177.067 361.688C179.704 357.741 181.111 353.101 181.111 348.355C181.105 341.991 178.574 335.89 174.075 331.391C169.575 326.891 163.475 324.361 157.111 324.355C152.365 324.355 147.724 325.762 143.778 328.399C139.831 331.036 136.755 334.785 134.938 339.17C133.122 343.556 132.646 348.381 133.572 353.037C134.498 357.692 136.784 361.969 140.141 365.325C143.497 368.682 147.774 370.967 152.429 371.893C157.085 372.819 161.91 372.344 166.296 370.528C170.681 368.711 174.429 365.635 177.067 361.688Z" fill="#FFB557"/>
<path d="M109.698 226.39C113.644 229.027 118.285 230.434 123.031 230.434C129.395 230.428 135.495 227.898 139.995 223.398C144.494 218.899 147.025 212.798 147.031 206.435C147.031 201.688 145.624 197.048 142.987 193.101C140.349 189.154 136.601 186.078 132.216 184.261C127.83 182.445 123.005 181.97 118.349 182.896C113.694 183.822 109.417 186.107 106.061 189.464C102.704 192.82 100.418 197.097 99.4924 201.752C98.5664 206.408 99.0416 211.233 100.858 215.619C102.675 220.004 105.751 223.753 109.698 226.39Z" fill="#FFB557"/>
</svg>
