<svg width="480" height="303" viewBox="0 0 480 303" fill="none" xmlns="http://www.w3.org/2000/svg">
<path d="M471.822 302.117C481.35 266.558 482.57 229.284 475.388 193.178C468.207 157.073 452.815 123.103 430.405 93.8973C407.994 64.6915 379.166 41.0325 346.149 24.7505C313.133 8.46855 276.813 -5.12035e-07 240 0C203.187 5.12035e-07 166.867 8.46855 133.851 24.7505C100.834 41.0325 72.0056 64.6915 49.5952 93.8973C27.1848 123.103 11.7934 157.073 4.61154 193.178C-2.57032 229.284 -1.3501 266.558 8.17781 302.117L85.522 281.392C79.173 257.697 78.3599 232.859 83.1456 208.8C87.9313 184.74 98.1876 162.104 113.121 142.642C128.055 123.181 147.265 107.415 169.266 96.5655C191.267 85.7158 215.469 80.0726 240 80.0726C264.531 80.0726 288.733 85.7158 310.734 96.5655C332.735 107.415 351.945 123.181 366.879 142.642C381.812 162.104 392.069 184.74 396.854 208.8C401.64 232.859 400.827 257.697 394.478 281.392L471.822 302.117Z" fill="#0B2464"/>
<path d="M8.17781 302.117C0.020546 271.673 -2.06058 239.921 2.05324 208.674C6.16707 177.426 16.3953 147.295 32.1539 120C47.9125 92.7053 68.893 68.7817 93.8973 49.5952C118.902 30.4087 147.44 16.3351 177.883 8.1778L198.608 85.522C178.321 90.9577 159.304 100.336 142.642 113.121C125.98 125.906 112 141.848 101.499 160.036C90.9979 178.225 84.1821 198.303 81.4408 219.125C78.6995 239.948 80.0863 261.106 85.522 281.392L8.17781 302.117Z" fill="#FFB557"/>
</svg>
