<svg width="468" height="350" viewBox="0 0 468 350" fill="none" xmlns="http://www.w3.org/2000/svg">
<path d="M201.759 141.281C183.335 159.705 183.335 189.551 201.759 208.067C220.183 226.491 250.03 226.491 268.546 208.067C286.97 189.643 286.97 159.797 268.546 141.281C250.03 122.857 220.183 122.857 201.759 141.281Z" fill="#0B2464"/>
<path d="M401.931 7.80055C392.719 -1.41138 377.796 -1.41138 368.584 7.80055C359.372 17.0125 359.372 31.9358 368.584 41.1478C442.188 114.751 442.188 234.506 368.584 308.11C359.372 317.322 359.372 332.245 368.584 341.457C373.19 346.063 389.68 355.92 401.931 341.457C485.852 242.06 493.959 99.8278 401.931 7.80055ZM101.622 41.1478C110.834 31.9358 110.834 17.0125 101.622 7.80055C92.4104 -1.41138 77.487 -1.41138 68.2751 7.80055C-23.7522 99.8278 -21.6334 247.495 68.2751 341.549C80.8954 354.814 97.0163 346.155 101.622 341.549C110.834 332.337 110.834 317.414 101.622 308.202C28.0189 234.506 28.0189 114.751 101.622 41.1478Z" fill="#FFB557"/>
<path d="M301.893 74.4939C311.105 65.282 326.029 65.282 335.241 74.4939C390.42 129.766 390.42 219.582 335.241 274.669C330.635 279.275 324.647 281.578 318.567 281.578C312.579 281.578 306.499 279.275 301.893 274.669C292.682 265.457 292.682 250.534 301.893 241.322C338.649 204.566 338.649 144.689 301.893 107.841C292.682 98.6292 292.682 83.7058 301.893 74.4939Z" fill="#FFB557"/>
<path d="M134.973 74.4939C144.185 65.282 159.109 65.282 168.32 74.4939C177.624 83.798 177.624 98.7213 168.32 107.933C131.473 144.689 131.473 204.566 168.32 241.414C177.532 250.626 177.532 265.549 168.32 274.761C163.714 279.367 157.727 281.67 151.647 281.67C145.659 281.67 139.579 279.367 134.973 274.761C108.259 248.047 93.5195 212.489 93.5195 174.628C93.5195 136.767 108.259 101.209 134.973 74.4939Z" fill="#FFB557"/>
</svg>
