<svg width="512" height="512" viewBox="0 0 512 512" fill="none" xmlns="http://www.w3.org/2000/svg">
<path d="M0 283.894H123.077V346.25H0V283.894ZM0 192H123.077V254.356H0V192ZM152.615 192H246.154V254.356H152.615V192ZM152.615 283.894H246.154V346.25H152.615V283.894ZM398.769 283.894H512V346.25H398.769V283.894ZM398.769 192H512V254.356H398.769V192ZM0 375.795V423.384C0 447.815 19.876 467.692 44.308 467.692H123.077V375.795H0ZM275.692 192H369.23V254.356H275.692V192ZM152.615 375.798H246.154V467.692H152.615V375.798ZM398.769 375.795V467.692H467.692C492.123 467.692 512 447.816 512 423.384V375.795H398.769ZM275.692 283.894H369.23V346.25H275.692V283.894ZM275.692 375.798H369.23V467.692H275.692V375.798Z" fill="#d32727"/>
<path d="M44.308 44.3076H467.692C492.124 44.3076 512 64.1836 512 88.6146V162.461H0V88.6146C0 64.1836 19.876 44.3076 44.308 44.3076Z" />
</svg>
