<svg width="450" height="319" viewBox="0 0 450 319" fill="none" xmlns="http://www.w3.org/2000/svg">
<path d="M9.36 318.12H439.82C442.301 318.12 444.68 317.135 446.435 315.382C448.19 313.628 449.177 311.25 449.18 308.77V52.7695H0V308.77C0.00265031 311.25 0.989961 313.628 2.74501 315.382C4.50007 317.135 6.87931 318.12 9.36 318.12ZM175.36 129.05C175.361 126.617 176.001 124.227 177.218 122.121C178.435 120.014 180.184 118.265 182.291 117.049C184.398 115.833 186.788 115.193 189.221 115.193C191.653 115.193 194.043 115.833 196.15 117.05L276.23 163.29C278.336 164.506 280.084 166.256 281.299 168.362C282.515 170.469 283.155 172.858 283.155 175.29C283.155 177.721 282.515 180.11 281.299 182.217C280.084 184.323 278.336 186.073 276.23 187.29L196.15 233.52C194.043 234.736 191.653 235.376 189.221 235.376C186.788 235.377 184.398 234.736 182.291 233.52C180.184 232.304 178.435 230.555 177.218 228.448C176.001 226.342 175.361 223.952 175.36 221.52V129.05Z" fill="#d32727"/>
<path d="M9.36 0H439.82C442.302 0.00264706 444.681 0.989637 446.436 2.7444C448.19 4.49917 449.177 6.87839 449.18 9.36V40.22H0V9.36C0.00264706 6.87839 0.989637 4.49917 2.7444 2.7444C4.49917 0.989637 6.87839 0.00264706 9.36 0Z" fill="#"/>
</svg>
